<mxfile host="app.diagrams.net" agent="Mozilla/5.0 (Windows NT 10.0; Win64; x64) AppleWebKit/537.36 (KHTML, like Gecko) Chrome/136.0.0.0 Safari/537.36" version="27.0.9">
  <diagram name="PÃ¡gina-1" id="-B1-mtX1BWI8dpQnZupe">
    <mxGraphModel dx="1111" dy="499" grid="1" gridSize="10" guides="1" tooltips="1" connect="1" arrows="1" fold="1" page="1" pageScale="1" pageWidth="827" pageHeight="1169" math="0" shadow="0">
      <root>
        <mxCell id="0" />
        <mxCell id="1" parent="0" />
        <mxCell id="wDAnrYt7R3O2v1MVooIJ-7" style="edgeStyle=orthogonalEdgeStyle;rounded=0;orthogonalLoop=1;jettySize=auto;html=1;entryX=0.5;entryY=0;entryDx=0;entryDy=0;" edge="1" parent="1" source="wDAnrYt7R3O2v1MVooIJ-1" target="wDAnrYt7R3O2v1MVooIJ-4">
          <mxGeometry relative="1" as="geometry" />
        </mxCell>
        <mxCell id="wDAnrYt7R3O2v1MVooIJ-1" value="&lt;font style=&quot;vertical-align: inherit;&quot;&gt;&lt;font style=&quot;vertical-align: inherit;&quot;&gt;sistema&lt;/font&gt;&lt;/font&gt;" style="rounded=0;whiteSpace=wrap;html=1;" vertex="1" parent="1">
          <mxGeometry x="165" y="110" width="130" height="70" as="geometry" />
        </mxCell>
        <mxCell id="wDAnrYt7R3O2v1MVooIJ-5" style="edgeStyle=orthogonalEdgeStyle;rounded=0;orthogonalLoop=1;jettySize=auto;html=1;" edge="1" parent="1" source="wDAnrYt7R3O2v1MVooIJ-2" target="wDAnrYt7R3O2v1MVooIJ-3">
          <mxGeometry relative="1" as="geometry" />
        </mxCell>
        <mxCell id="wDAnrYt7R3O2v1MVooIJ-2" value="&lt;font style=&quot;vertical-align: inherit;&quot;&gt;&lt;font style=&quot;vertical-align: inherit;&quot;&gt;cliente&lt;/font&gt;&lt;/font&gt;" style="rounded=0;whiteSpace=wrap;html=1;" vertex="1" parent="1">
          <mxGeometry x="380" y="110" width="140" height="70" as="geometry" />
        </mxCell>
        <mxCell id="wDAnrYt7R3O2v1MVooIJ-6" style="edgeStyle=orthogonalEdgeStyle;rounded=0;orthogonalLoop=1;jettySize=auto;html=1;entryX=1;entryY=0.5;entryDx=0;entryDy=0;" edge="1" parent="1" source="wDAnrYt7R3O2v1MVooIJ-3" target="wDAnrYt7R3O2v1MVooIJ-4">
          <mxGeometry relative="1" as="geometry" />
        </mxCell>
        <mxCell id="wDAnrYt7R3O2v1MVooIJ-3" value="&lt;font style=&quot;vertical-align: inherit;&quot;&gt;&lt;font style=&quot;vertical-align: inherit;&quot;&gt;comprar vuelos&lt;/font&gt;&lt;/font&gt;" style="ellipse;whiteSpace=wrap;html=1;aspect=fixed;" vertex="1" parent="1">
          <mxGeometry x="400" y="240" width="100" height="100" as="geometry" />
        </mxCell>
        <mxCell id="wDAnrYt7R3O2v1MVooIJ-4" value="&lt;font style=&quot;vertical-align: inherit;&quot;&gt;&lt;font style=&quot;vertical-align: inherit;&quot;&gt;registro vuelos&lt;/font&gt;&lt;/font&gt;" style="ellipse;whiteSpace=wrap;html=1;aspect=fixed;" vertex="1" parent="1">
          <mxGeometry x="180" y="240" width="100" height="100" as="geometry" />
        </mxCell>
      </root>
    </mxGraphModel>
  </diagram>
</mxfile>
